<?xml version="1.0" encoding="utf-8"?>
<!-- Generator: Adobe Illustrator 22.1.0, SVG Export Plug-In . SVG Version: 6.00 Build 0)  -->
<svg version="1.1" id="Layer_1" xmlns="http://www.w3.org/2000/svg" xmlns:xlink="http://www.w3.org/1999/xlink" x="0px" y="0px"
	 viewBox="0 0 1009.4 1033.4" style="enable-background:new 0 0 1009.4 1033.4;" xml:space="preserve">
<style type="text/css">
	.st0{fill-rule:evenodd;clip-rule:evenodd;fill:#0F1115;}
	.st1{fill-rule:evenodd;clip-rule:evenodd;fill:#FDFDFD;}
	.st2{fill-rule:evenodd;clip-rule:evenodd;}
	.st3{fill-rule:evenodd;clip-rule:evenodd;fill:#FFFFFF;}
	.st4{fill:none;stroke:#000000;stroke-width:0.216;stroke-miterlimit:22.9256;}
	.st5{fill:#231F20;}
	.st6{font-family:'ArialNarrow-Bold';}
	.st7{font-size:101.029px;}
	.st8{font-family:'Arial-BoldMT';}
	.st9{font-size:70.5193px;}
</style>
<path class="st0" d="M641.8,428.8c-45.6-12.8-44.7-27-109.4-25c-36.8,1.1-75,16.7-96.1,36c-13.5-8.8-75.6-88.3-94.6-111.4
	c-16.2-19.7-12.1-27.6-45.9-26c11.7,22.9,40.8,53.4,59.2,75.6c18.5,22.3,46.4,53.3,61.8,76.1c-26.6,42.3-47.1,53-48,125.9
	l-212.7-7.8c-15.2-15.5-12.3-36.2-48.9-36c-26.7,0.1-44.4,18.3-45.7,43.6c-2.6,47.8,60.4,73.4,92,14l215.9,5.8
	c9.2,75.9,51.2,112.3,107.1,144c-4.1,26-53.7,108.3-68.5,141.9l20,7.9L499.2,756c20.2,1.3,50.7,20.2,116.6-0.9
	c44.1-14.1,18.7-34.3,86.9,50c125.8,155.7,54,67.1,68.2,134c6,28.4,39.1,47.9,71,29.9c27-15.2,26.8-59.4,1.4-77.3
	c-36.9-26-23.5,22-70.1-34.9c-17-20.7-33.9-41.8-51.4-62.3c-12.4-14.6-43.4-49.7-51.1-67.5c9.2-15.4,26.3-28.7,39.6-49.4
	c11.3-17.7,12-47.4,24.3-63.2l126.4,2.8c15.2,63.1,93,42.9,91.5-7.9c-0.7-25.2-17.6-42.7-41.9-44.8c-34.7-3.1-36.6,19.8-53.8,32.9
	l-122.6-5c-2.8-68.8-36.6-109.5-72.2-147.4c3.4-19.1,59.5-125.4,70.8-146l-17.5-12.8L641.8,428.8"/>
<path class="st1" d="M891.1,583.9c-37.7,22-5.7,69.6,29.2,55.4C955.8,624.8,933.1,559.4,891.1,583.9"/>
<path class="st1" d="M95.8,553.9c-41.7,22.3-11.2,73.3,25.4,56.9C159.1,593.7,130.2,535.5,95.8,553.9"/>
<path class="st1" d="M800,905.3c-0.8,0.7-30.2,14.2-9.5,43.5c8,11.4,27,17.2,42.5,7.3C866,934.9,835.9,877.6,800,905.3"/>
<path class="st2" d="M324.2,218.3c-6.4,0-7.6-0.2-14.2,1.1c-3.6,0.7-4.6,1.1-7.6,2.3c-6.9,2.7-12.5,7.7-16.8,13.4
	c-4.4,5.8-2.9,4.3-5.4,9.5c-2.6,5.4-2.9,10.7-2.9,16.5c0,7.6,4.2,13.3,8.6,16.6c11,8.2,24.9,4.6,35.1,4.6
	c7.3-31.3,14.3-62.8,21.6-94.1h-12.1C330.5,191.7,324.3,214.4,324.2,218.3"/>
<path class="st2" d="M83.3,270.5c-9.9,0-17.5-7.8-20.3-8.6c0,1.3-2.8,13.1-3.2,14c2.3,1.2,4.4,2.5,6.8,3.6c10.9,4.8,23.7,5,33.3-2.2
	c10.9-8.2,14.3-23.9,6.8-35.1c-4-5.9-3.1-4.6-8-9.6c-5.8-5.8-20.3-18.6-11.9-27.9c2.3-2.5,4.3-5,9.8-5.9c11.5-2,14.1,2.9,20,4.3
	c0-4.3,2.2-8.9,2.2-13.1c-17.5-8.4-39.8-3.2-46.3,15.4c-2.6,7.4-1.3,17.4,3.3,23.6c10.2,14,30.5,23.7,18.3,37.6
	C92,268.9,87.5,270.5,83.3,270.5"/>
<path class="st2" d="M355.7,255.7c0,7.8,1.8,15,6.2,19.5c4.7,4.9,9.3,7.5,16.8,7.5c5.9,0,13-2.5,16.9-4.8c5.4-3.2,3.9-1.9,7-15.1
	l-9.4,5.5c-5.4,3.3-16.9,6.1-21.5-0.7c-5.1-7.6-2.9-12.5-2.9-18.3h37.4c0-9.9,3.6-24.2-9.5-30.1c-7.4-3.3-16.9-1.5-23.7,2.7
	c-0.9,0.6-1.4,0.7-2.2,1.4c-7.6,6.2-10.4,12-13.1,20.6C356.8,246.5,355.7,252.5,355.7,255.7"/>
<path class="st2" d="M231.9,272.3l-1.8,9h11.7l10.5-46.2c0.7-3.4,3.4-13.4,3.4-16h-11.7c-0.2,2.2-1.3,5.3-1.7,7.3
	c-1,4.7-7,31.1-8.5,33.4c-2.5,3.6-8.8,8.9-13.1,10.8c-4.9,2.2-11.1,1.1-10.9-5c0.1-2.4,2.5-12.5,3.2-15.7l6.6-30.7H208
	c-3.1,13.5-8.8,35.3-10.2,48.8c-0.2,1.4,0.5,4.9,0.8,6.1c2.8,9.1,12.1,10,19.5,7C226.9,277.6,229.9,272.9,231.9,272.3"/>
<path class="st2" d="M452.5,229.6c0.3-3.1,1.8-5.6,1.8-9h-11.7c-0.4,5.5-14,58.1-14,62.1h11.7l9.9-41c1.1-2.1,8-8.2,11-9.8
	c3.3-1.8,3.5-2.4,8.4-2.4c8.3,0,3.7,13.6,2.8,17.6l-5.2,23.6c-0.5,2.2-0.8,3.7-1.3,5.9c-0.3,1.6-1.1,4-1.2,6h11.7l8.3-36.3
	c1.6-7.3,1.1-5.7,1.9-13c0.8-7.9-4.6-15.4-14.3-14.3C461.3,220.4,457.1,226.4,452.5,229.6"/>
<path class="st2" d="M153.1,219.2h-9.9c-0.3,1.4-0.9,3.3-1.3,4.6c-0.4,1.2-1,3.5-1.4,4.4h9.9c-0.8,3.2-1.8,6.5-2.7,9.5
	c-2.1,7.1-7.3,23.5-7.3,30.1c0,13,11.7,17.4,22.3,13.3c2.1-0.8,4.5-2.1,6.5-2.5c0-3.6,0.2-8.4,0.9-11.3c-3.7,0.9-5.5,3.6-10.8,3.6
	c-10.1,0-5.2-13.1-3.2-19.9l4.8-16.8c0.5-1.8,1.5-4.4,1.6-6h11.7c0.5-1,2.6-7.8,2.7-9h-11.3l3.6-13.1h-12.2L153.1,219.2"/>
<path class="st2" d="M528.6,219.2h-10.4l-2.7,9h9.9c-0.7,3.2-1.8,6.5-2.6,9.5c-2.1,7.2-7.3,23.8-7.3,30.1
	c0,13.9,13.4,17.2,22.4,13.4c1.9-0.8,4.6-2.1,6.4-2.6c0-3.3,0.3-8.6,0.9-11.3c-3.7,0.9-5.5,3.6-10.8,3.6c-4.5,0-6.9-3.1-6.1-7.8
	c0.8-4.6,1.7-8.1,2.9-12l6.4-22.9h11.7c0.5-1,2.6-7.8,2.7-9h-11.3c0.2-2.9,3.4-10.3,3.6-13.1h-12.2
	C531.9,209.9,528.7,215.4,528.6,219.2"/>
<path class="st3" d="M289.5,256.1c0,11,6.3,16.7,17.1,16.7c2.5,0,2.7-0.4,4.9-0.4c0.1-2.7,1.6-8.2,2.3-10.8c0.9-3.5,1.6-7,2.4-10.7
	l4.8-21.7l-6.3,0c-1.9,0.1-4.6,0.9-6.3,1.3c-3.7,1.1-6.7,3.3-9.5,5.4C293.7,239.8,289.5,248.9,289.5,256.1"/>
<path class="st3" d="M371.9,240.4h23.8c0-3.8,0.4-7.1-2.3-10.2c-4.1-4.8-15.4-2.2-19.3,5.3C373.4,236.8,372.3,238.8,371.9,240.4"/>
<path class="st2" d="M185.1,171.6c13.8,0,17.2-3.3,25.4-5.2v4.7h29c14.9,0,29.5-6.7,29.5-22.8c0-11.5-7.8-19.8-18.7-22.3
	c2.7-2.4,6.7-1.7,10.2-9.5c2.1-4.7,2-11.9,0.2-16.5c-3.6-9.9-12.7-13.9-26-13.9h-24.4v2.6c-11.3-5.4-31.4-6.2-43.3-1.3
	c-16.6,6.7-27.5,21.4-27.8,39.8c-0.1,8.1,1.6,11.8,3.9,18c1.6,4.5,5.8,10.2,9.4,13.4C162,166.8,170.8,171.6,185.1,171.6"/>
<path class="st2" d="M93.9,107.3c0,12.7,13.6,21.5,21.1,30.7c18.9,23.2-18.1,46.7-32.1,33.2c-6.2-6-3.2-16.6-11.2-16.6
	c-5.4,0-8.2,5.8-5.3,13.5c0.8,2,2.2,2.6,3.6,4.2c1.7,2.1,1.2,2,3.7,3.6c1.8,1.1,3,1.8,5.1,2.6c3.3,1.3,9.3,2.5,12.5,2.4
	c3.6-0.2,10.2-1.1,13.4-2.2c8.7-2.9,7.6-3,14.9-7.4c5.1-3.1,11.4-12.2,12.5-18.1c3.6-19.9-8.7-26-20.1-39.5c-1.7-2-2.4-2.6-3.9-4.9
	c-2.6-4.1-2.5-10.5-0.3-15.1c5.7-11.6,24.3-18.1,29.7-5c1.8,4.3,0.5,12.6,0.2,17.7l4.5,0c0.2-2,0.8-4.7,1-6.8
	c0.6-5.2,1.2-9.3,2.6-14c0.6-1.9,1.4-4.7,1.6-6.7c-11.1-0.9-26.2-7.8-42.3,5.8c-2.4,2-6,6.3-7.4,9.2c-0.9,1.9-2,3.5-2.6,5.7
	C94.5,101.7,93.9,104.8,93.9,107.3"/>
<path class="st2" d="M57.1,97.5c2.4,0.6,1.2,1.4,4.1,2.1c4.1-2.7,7-9.3,13.5-9.3c0.8,3.5-1.4,8.1-2.9,13.2
	c-1.3,4.7-2.5,8.9-3.8,13.3c-1.3,4.5-2.3,8.9-3.5,13.6c-1.4,5.6-6.3,22.5,4.3,21.9c3.7-0.2,7.3-2.2,10.1-3.9
	c2.6-1.6,5.5-4.1,7.8-6.2c2-1.8,5.3-4.2,7.1-6.9l-3-3.2c-2,0.6-2,1.3-3.4,2.6c-15.8,15-12.6,4.5-9.4-8.4C81,115,84.3,105.1,87.3,94
	c1.7-6.4,5.3-14.1-3.2-14.1C73.6,79.9,57.5,93.5,57.1,97.5"/>
<path class="st3" d="M210.5,152.9v-51.3c-2.4-0.2-7.7-2.8-9.9-3.6c-15.1-5.4-33.6-1.3-42.7,12.1c-1,1.5-2.8,5-3.3,6.6
	c-1,3-1.4,4.4-1.6,8.2c-0.2,3-0.4,5,0.2,8.7c0.8,4.9,3.3,10.1,6.4,13.8c9.1,10.7,22.2,14.4,36,10.8
	C201.9,156.6,209.1,153,210.5,152.9"/>
<path class="st3" d="M222.9,159.7c10.4,0,26.3,1.6,31-6.3c1-1.7,1.6-4.6,1.6-7.2c0-14.5-20.6-12.4-32.6-12.4L222.9,159.7"/>
<path class="st3" d="M222.9,122.3l11.9-0.5c17.5-1.1,16.2-18.3,9.2-22.1c-5.8-3.1-14.3-2.2-21.1-2.2L222.9,122.3"/>
<path class="st2" d="M81.5,65.4v2.1c0,4,4.5,5.8,8.3,4.7c6.3-1.9,9.4-15-0.5-15C84.8,57.1,81.5,60.9,81.5,65.4"/>
<path class="st2" d="M549.9,401.4c102.2,0,185,82.8,185,185c0,102.2-82.8,185-185,185c-102.2,0-185-82.8-185-185
	C364.9,484.2,447.7,401.4,549.9,401.4"/>
<path class="st4" d="M549.9,401.4c102.2,0,185,82.8,185,185s-82.8,185-185,185c-102.2,0-185-82.8-185-185S447.7,401.4,549.9,401.4z"
	/>
<path class="st3" d="M549.9,413.3c95.6,0,173,77.5,173,173c0,95.6-77.5,173-173,173c-95.6,0-173-77.5-173-173
	C376.8,490.8,454.3,413.3,549.9,413.3"/>
<g>
	<text transform="matrix(1.1582 0 0 1 743.7871 164.649)" class="st5 st6 st7">L</text>
	<text transform="matrix(1.1582 0 0 1 674.6328 164.649)" class="st5 st6 st7">A</text>
	<text transform="matrix(1.1582 0 0 1 605.4795 164.649)" class="st5 st6 st7">N</text>
	<text transform="matrix(1.1582 0 0 1 530.8262 164.649)" class="st5 st6 st7">O</text>
	<text transform="matrix(1.1582 0 0 1 504.1484 164.649)" class="st5 st6 st7">I</text>
	<text transform="matrix(1.1582 0 0 1 429.4956 164.649)" class="st5 st6 st7">G</text>
	<text transform="matrix(1.1582 0 0 1 365.6069 164.649)" class="st5 st6 st7">E</text>
	<text transform="matrix(1.1582 0 0 1 296.3369 164.649)" class="st5 st6 st7"> </text>
	<text transform="matrix(1.1582 0 0 1 296.3374 164.649)" class="st5 st6 st7"> </text>
	<text transform="matrix(1.1582 0 0 1 296.4541 164.649)" class="st5 st6 st7">R</text>
</g>
<text transform="matrix(1.1375 0 0 1 576.3701 284.0729)" class="st5 st6 st7">GROUP</text>
<path class="st2" d="M102.5,906.6c0,3.3-0.4,5.2-1.4,7.5c-2.7,6.6-4.4,8.6-8.1,14.3c-0.6,0.9-1.1,1.7-1.2,2.8c1.1-0.9,1.9-2,2.7-3.1
	c3.3-4.3,7.6-9.5,12.1-12.7c0.6-0.4,1-0.7,1.6-1.1c20.5-15.1,36.7-8,29.7,5.6c-0.6,1.9-2.2,4.2-3.2,5.8c-1.1,1.8-2.3,3.3-3.3,5.3
	c-1.7,3.1-3.9,8.7-3.9,13.2c0,5.3,1.4,9.9,6.7,12.2c1.1,0.5,2.5,1.2,3.5,1.4c1.5,0.3,2.7,0.3,4.3,0.5c4.9,0.7,11.8-1.1,16.5-2.5
	c5.9-1.8,14.6-6.5,19.4-9.6c0-5,0.1-6.1,2-11.3c0.5-1.3,1.2-2,1.4-3.4c-2,1.6-3.8,3.4-6,4.9c-2.1,1.4-4.3,2.9-6.6,4.1
	c-3.5,1.7-11.4,5.3-16.6,4.5c-7.8-1.2-9.7-5.7-7.4-12.8c0.7-2.3,2.5-5,3.8-6.9c1.5-2.2,2.8-4,4.1-6.5c0.4-1.2,0.9-1.9,1.4-3.2
	c0.4-1.1,0.8-2.4,1.1-3.4c0.7-2.6,1.1-5,1.1-8.1c-1.1-12.9-16.5-12.9-26.3-10.5c-7.8,1.9-17.6,6.3-24.2,10.7
	C104.3,905.2,103.5,905.9,102.5,906.6"/>
<path class="st2" d="M156,904.2c0,3.2-0.4,5.6-1.1,8.1c-0.3,1-0.6,2.3-1.1,3.4c-0.5,1.3-1,2-1.4,3.2c3-1.8,5.5-5.1,12.8-8.7
	c4.3-2.1,14.6-6.9,20.9-3c8.3,5.1,1,15.5-2.8,21.1l-1.6,2.5c0,0.1-0.1,0.8-0.3,0.4c0-0.1-0.1,0.1-0.2,0.2c-0.2,1.3-0.9,2.1-1.4,3.4
	c-1.9,5.2-2,6.3-2,11.3c0,9.5,10.6,13.1,18.5,12.1c3.1-0.4,1.5,0.2,6.8-0.8c3.6-0.7,8.7-2.2,11.8-3.7c1.4-0.7,3.9-2.3,5.5-2.4
	c-0.3-1-1.7-2.2-3-3.8c-1.2-1.4-1.9-2.9-2.9-4.4c-1.4,0.1-13.2,4.8-18.8-0.7c-2.6-2.6-3-8.5,0.8-12.6c5.3-5.8,5.8-8.8,14.3-15
	c4.1-3,1.5-3.4,7.1-10.5c1.8-2.2,2.3-2.2,2.6-3.9c-4.4,0.3-11.9,4.8-14.4,7.2c0-4.3,0-7.9-3.2-11.1c-8.2-8-25.7-3.2-34.3,0.6
	C162.9,900,160.6,901.8,156,904.2"/>
<path class="st2" d="M77.1,932.3c-0.1,1.1-0.9,2.5-1.3,3.4c-0.5,1.1-0.7,2.1-1.1,3.4c-0.6,1.9-1.1,5.5-0.6,7.6c0,5.2,4,9.1,8.9,10.8
	c8.1,2.8,20.5-0.2,28.5-4c1.3-0.6,2.4-1,3.6-1.6l9.4-5.4c1.1-0.8,2-1.4,3.1-2.1c0-4.5,2.2-10.1,3.9-13.2c1.1-2,2.3-3.5,3.3-5.3
	c1-1.6,2.6-3.9,3.2-5.8c-1,0.6-8.7,10.9-13.2,14.4c-3.7,3-6.2,4.2-10.1,6.5c-4.5,2.7-20.9,8.2-24.1-1c-0.8-2.4-0.4-5.7,0.9-8.1
	c0,0,0.1-0.1,0.1-0.2c0-0.1,0.1-0.2,0.1-0.2c0.1-1.1,0.6-1.9,1.2-2.8c3.7-5.7,5.4-7.7,8.1-14.3c1-2.3,1.4-4.2,1.4-7.5
	c0-4.9-0.6-8.1-4.7-11.1c-7.9-5.9-23.7-2-31.7,1.5c-1.7,0.8-3.6,1.9-5.6,2.4v11.3c6.3-3.3,20.3-8.4,24.5-1.2
	c2.4,4.2,0.5,9.3-1.4,12.6c-0.6,1.1-1,1.6-1.6,2.5l-4.7,7.4C77.2,932.1,77.1,932.2,77.1,932.3"/>
<path class="st2" d="M74,946.7c-0.5-2.1,0-5.6,0.6-7.6c0.4-1.3,0.6-2.2,1.1-3.4c0.4-1,1.2-2.3,1.3-3.4c-7.1,5.6-3.7,3.4-11.9,8.4
	c-1.7,1-3,1.4-4.7,2.2v10.9C63.2,953.2,71.6,948.2,74,946.7"/>
<path class="st3" d="M152.4,918.9c-1.3,2.5-2.6,4.3-4.1,6.5c-1.3,1.9-3,4.6-3.8,6.9c-2.3,7-0.4,11.6,7.4,12.8
	c5.2,0.8,13.1-2.7,16.6-4.5c2.3-1.2,4.5-2.6,6.6-4.1c2.2-1.5,4-3.4,6-4.9c0.1-0.1,0.1-0.3,0.2-0.2c0.2,0.4,0.3-0.4,0.3-0.4l1.6-2.5
	c3.8-5.6,11.1-16,2.8-21.1c-6.4-3.9-16.6,0.9-20.9,3C157.9,913.8,155.4,917.1,152.4,918.9"/>
<path class="st3" d="M91.8,931.3c0,0.1-0.1,0.1-0.1,0.2c0,0.1-0.1,0.2-0.1,0.2c-1.3,2.4-1.7,5.7-0.9,8.1c3.2,9.3,19.6,3.7,24.1,1
	c3.9-2.3,6.3-3.5,10.1-6.5c4.5-3.6,12.2-13.8,13.2-14.4c7.1-13.6-9.2-20.6-29.7-5.6c-0.6,0.5-1.1,0.7-1.6,1.1
	c-4.5,3.2-8.9,8.3-12.1,12.7C93.7,929.3,92.9,930.4,91.8,931.3"/>
<text transform="matrix(1 0 0 1.0173 243.6167 949.2355)"><tspan x="0" y="0" class="st5 st8 st9">Coun</tspan><tspan x="180.2" y="0" class="st5 st8 st9">t</tspan><tspan x="203.8" y="0" class="st5 st8 st9">r</tspan><tspan x="231.2" y="0" class="st5 st8 st9">y</tspan><tspan x="270.2" y="0" class="st5 st8 st9"> Name</tspan></text>
</svg>
